<svg width="176" height="19" viewBox="0 0 176 19" fill="none" xmlns="http://www.w3.org/2000/svg">
<path d="M12.5252 0V8.37068L6.26261 4.26907L0 8.37068L5.57971e-07 0H12.5252Z" fill="#3855F0"/>
<path d="M12.5252 10.7784V14.88C12.5252 17.1453 9.72133 18.9817 6.26261 18.9817C2.80387 18.9817 -1.51138e-07 17.1453 0 14.88L2.73282e-07 10.7784H12.5252Z" fill="#3855F0"/>
<path d="M32.3173 0.789644V18.6456H25.5253V0.789644H32.3173Z" fill="#3855F0"/>
<path d="M34.619 0.789644H42.251L52.619 10.9416V0.789644H59.387V18.6456H52.571L41.387 7.82164V18.6456H34.619V0.789644Z" fill="#3855F0"/>
<path d="M68.8413 18.6456V5.66164H61.1373V0.789644H83.3613V5.66164H75.6573V18.6456H68.8413Z" fill="#3855F0"/>
<path d="M85.1268 0.789644H104.879V5.15764H91.8468V7.38964H104.615V11.7336H91.8468V14.1816H105.071V18.6456H85.1268V0.789644Z" fill="#3855F0"/>
<path d="M113.857 5.13364V8.20564H121.681C123.057 8.20564 123.745 7.69364 123.745 6.66964V6.64564C123.745 5.63764 123.057 5.13364 121.681 5.13364H113.857ZM113.857 12.5256V18.6456H107.041V0.789644H123.265C128.273 0.789644 130.777 2.31764 130.777 5.37364V5.63764C130.777 6.24564 130.657 6.79764 130.417 7.29364C130.177 7.78964 129.857 8.18964 129.457 8.49364C129.073 8.79764 128.689 9.03764 128.305 9.21364C127.937 9.38964 127.561 9.52564 127.177 9.62164C128.313 9.87764 129.209 10.3736 129.865 11.1096C130.521 11.8296 130.849 12.7496 130.849 13.8696V16.5096C130.849 17.4376 130.961 18.1096 131.185 18.5256V18.6456H124.225C124.081 18.4856 124.009 18.1736 124.009 17.7096V15.6216C124.009 14.5656 123.729 13.7896 123.169 13.2936C122.625 12.7816 121.697 12.5256 120.385 12.5256H113.857Z" fill="#3855F0"/>
<path d="M139.52 0.789644V18.6456H132.728V0.789644H139.52Z" fill="#3855F0"/>
<path d="M154.254 0.453644H155.334C156.918 0.453644 158.358 0.565644 159.654 0.789644C160.966 0.997644 162.062 1.27764 162.942 1.62964C163.838 1.96564 164.614 2.38964 165.27 2.90164C165.942 3.39764 166.47 3.90164 166.854 4.41364C167.238 4.92564 167.542 5.48564 167.766 6.09364C168.006 6.70164 168.158 7.25364 168.222 7.74964C168.302 8.24564 168.342 8.76564 168.342 9.30964V10.0296C168.342 10.5736 168.302 11.0936 168.222 11.5896C168.158 12.0856 168.006 12.6456 167.766 13.2696C167.542 13.8776 167.238 14.4456 166.854 14.9736C166.486 15.4856 165.966 15.9976 165.294 16.5096C164.622 17.0216 163.846 17.4536 162.966 17.8056C162.086 18.1576 160.99 18.4376 159.678 18.6456C158.382 18.8696 156.934 18.9816 155.334 18.9816H154.254C152.654 18.9816 151.198 18.8696 149.886 18.6456C148.59 18.4376 147.494 18.1576 146.598 17.8056C145.718 17.4536 144.942 17.0216 144.27 16.5096C143.598 15.9976 143.07 15.4856 142.686 14.9736C142.318 14.4456 142.014 13.8776 141.774 13.2696C141.55 12.6456 141.398 12.0856 141.318 11.5896C141.254 11.0936 141.222 10.5736 141.222 10.0296V9.30964C141.222 8.76564 141.254 8.24564 141.318 7.74964C141.398 7.25364 141.55 6.70164 141.774 6.09364C142.014 5.48564 142.318 4.92564 142.686 4.41364C143.07 3.90164 143.598 3.39764 144.27 2.90164C144.942 2.38964 145.718 1.96564 146.598 1.62964C147.494 1.27764 148.59 0.997644 149.886 0.789644C151.198 0.565644 152.654 0.453644 154.254 0.453644ZM161.286 9.81364V9.47764C161.286 8.94964 161.19 8.46164 160.998 8.01364C160.806 7.54964 160.478 7.10164 160.014 6.66964C159.566 6.23764 158.894 5.89364 157.998 5.63764C157.102 5.38164 156.03 5.25364 154.782 5.25364C153.502 5.25364 152.414 5.38164 151.518 5.63764C150.622 5.89364 149.95 6.23764 149.502 6.66964C149.054 7.10164 148.734 7.54964 148.542 8.01364C148.366 8.46164 148.278 8.94964 148.278 9.47764V9.76564C148.278 10.2936 148.374 10.7976 148.566 11.2776C148.758 11.7416 149.078 12.2056 149.526 12.6696C149.974 13.1176 150.646 13.4776 151.542 13.7496C152.454 14.0216 153.534 14.1576 154.782 14.1576C156.03 14.1576 157.102 14.0296 157.998 13.7736C158.91 13.5016 159.59 13.1416 160.038 12.6936C160.486 12.2456 160.806 11.7896 160.998 11.3256C161.19 10.8456 161.286 10.3416 161.286 9.81364Z" fill="#3855F0"/>
<path d="M175.604 13.9656V18.6456H168.836V13.9656H175.604Z" fill="#3855F0"/>
</svg>
